<?xml version="1.0" standalone="no"?><!DOCTYPE svg PUBLIC "-//W3C//DTD SVG 1.1//EN" "http://www.w3.org/Graphics/SVG/1.1/DTD/svg11.dtd"><svg t="1674516033282" class="icon" viewBox="0 0 1024 1024" version="1.1" xmlns="http://www.w3.org/2000/svg" p-id="6118" xmlns:xlink="http://www.w3.org/1999/xlink" width="200" height="200"><path d="M297.4 405.7c0 34.4 27.9 62.3 62.3 62.3s62.3-27.9 62.3-62.3v-0.1c0-34.4-27.9-62.3-62.3-62.3s-62.3 28-62.3 62.4zM602 405.7c0 34.4 27.9 62.3 62.3 62.3s62.3-27.9 62.3-62.3-27.9-62.3-62.3-62.3-62.3 27.9-62.3 62.3zM702.8 588c0 105.4-85.4 190.8-190.8 190.8S321.2 693.4 321.2 588h381.6z" fill="" p-id="6119"></path><path d="M512 960.5c-60.5 0-119.3-11.9-174.6-35.3-53.4-22.6-101.4-54.9-142.5-96.1-41.2-41.2-73.5-89.1-96.1-142.6-23.4-55.3-35.3-114.1-35.3-174.6s11.9-119.3 35.3-174.6c22.6-53.4 54.9-101.4 96.1-142.6 41.1-41 89.1-73.4 142.5-96C392.7 75.4 451.5 63.5 512 63.5s119.3 11.9 174.5 35.2c53.4 22.6 101.4 54.9 142.6 96.1s73.5 89.1 96.1 142.6c23.4 55.3 35.3 114.1 35.3 174.6s-11.9 119.3-35.3 174.6C902.6 740 870.3 788 829.1 829.2c-41.2 41.2-89.1 73.5-142.6 96.1-55.2 23.3-114 35.2-174.5 35.2z m0-832c-211.5 0-383.5 172-383.5 383.5s172 383.5 383.5 383.5 383.5-172 383.5-383.5-172-383.5-383.5-383.5z" fill="" p-id="6120"></path></svg>